<?xml version="1.0" standalone="no"?>
<!DOCTYPE svg PUBLIC "-//W3C//DTD SVG 20010904//EN"
 "http://www.w3.org/TR/2001/REC-SVG-20010904/DTD/svg10.dtd">
<svg version="1.0" xmlns="http://www.w3.org/2000/svg"
 width="2816.000000pt" height="1536.000000pt" viewBox="0 0 2816.000000 1536.000000"
 preserveAspectRatio="xMidYMid meet">

<g transform="translate(0.000000,1536.000000) scale(0.100000,-0.100000)"
fill="#000000" stroke="none">
<path d="M13825 13004 c-22 -2 -92 -9 -155 -15 -124 -11 -435 -67 -565 -100
-155 -41 -382 -112 -465 -148 -14 -5 -56 -22 -95 -37 -98 -37 -384 -177 -483
-235 -45 -27 -85 -49 -87 -49 -8 0 -159 -99 -255 -167 -370 -263 -715 -594
-976 -938 -372 -491 -659 -1123 -774 -1706 -49 -251 -90 -612 -90 -797 l0 -72
228 2 227 3 7 100 c14 186 29 320 49 455 25 167 108 518 150 631 17 46 40 109
51 139 11 30 23 59 28 64 12 12 232 -29 362 -68 139 -42 250 -89 344 -144 421
-246 671 -651 696 -1127 l3 -50 246 -3 246 -2 6 67 c4 38 7 91 7 118 0 135 74
404 155 566 131 260 349 498 608 662 153 98 350 175 531 207 141 26 351 28
491 5 230 -37 497 -154 692 -303 81 -62 288 -265 324 -317 69 -102 166 -280
203 -373 72 -181 94 -286 112 -534 l6 -98 243 0 243 0 6 78 c15 184 84 428
156 552 245 419 637 678 1145 755 82 13 91 13 106 -3 43 -45 173 -515 218
-787 21 -127 50 -403 54 -520 l2 -70 228 -3 227 -2 1 27 c6 180 -10 364 -61
683 -105 661 -386 1313 -808 1875 -396 528 -954 984 -1557 1276 -404 194 -834
321 -1310 385 -105 14 -627 27 -720 18z m557 -464 c364 -30 766 -129 1109
-272 232 -98 612 -319 806 -470 306 -238 592 -531 794 -813 116 -162 232 -353
225 -370 -2 -7 -55 -25 -118 -40 -233 -58 -491 -162 -663 -268 -113 -70 -251
-167 -313 -221 -30 -25 -58 -46 -63 -46 -5 0 -9 42 -9 94 0 340 -65 712 -167
951 -125 293 -281 519 -495 715 -395 363 -951 570 -1472 547 -300 -14 -565
-78 -816 -198 -216 -104 -380 -218 -544 -377 -236 -231 -390 -464 -495 -749
-89 -245 -123 -440 -137 -801 -4 -95 -11 -175 -16 -178 -5 -3 -35 16 -66 43
-137 119 -325 242 -486 319 -121 58 -397 152 -525 180 -45 10 -81 22 -81 29 0
6 23 51 51 100 379 664 1019 1222 1783 1554 296 129 739 240 1078 270 133 12
483 12 620 1z m23 -713 c149 -32 237 -62 374 -127 236 -113 459 -304 599 -514
116 -175 216 -428 246 -626 17 -114 31 -410 19 -410 -5 0 -47 39 -93 86 -331
337 -684 529 -1115 607 -176 32 -517 31 -690 -1 -168 -32 -264 -58 -369 -99
-281 -109 -530 -275 -755 -503 l-104 -105 6 175 c10 286 55 478 162 698 152
310 380 536 700 694 134 66 267 109 430 139 150 28 426 21 590 -14z"/>
<path d="M13915 9719 c-202 -29 -432 -147 -585 -301 -201 -201 -309 -469 -310
-766 0 -90 26 -239 60 -337 40 -117 138 -271 235 -370 378 -387 953 -439 1395
-127 280 197 461 576 435 907 -23 280 -130 513 -324 704 -233 231 -569 338
-906 290z"/>
<path d="M9897 8334 c-3 -4 -4 -27 -1 -53 57 -476 156 -855 326 -1256 98 -231
259 -518 426 -760 126 -182 160 -232 287 -420 541 -803 1110 -1583 1478 -2028
32 -39 95 -118 140 -176 44 -58 95 -122 111 -142 17 -19 86 -102 154 -185 140
-170 140 -171 427 -514 425 -510 771 -926 799 -962 16 -21 33 -38 40 -38 6 1
48 47 93 103 44 56 121 150 170 208 48 58 158 190 243 294 85 103 169 204 186
224 142 164 285 334 314 371 19 24 114 139 210 256 96 116 214 260 261 320 48
60 169 213 269 339 100 127 250 320 333 430 245 324 331 439 347 462 17 25
126 178 186 261 22 31 74 107 115 167 42 61 129 187 194 280 249 357 648 953
716 1070 54 93 147 272 186 360 52 117 68 158 120 300 74 203 84 235 132 425
66 267 123 614 108 655 -6 13 -34 15 -234 13 l-228 -3 -8 -55 c-17 -113 -58
-327 -76 -395 -11 -38 -29 -106 -41 -150 -38 -142 -47 -168 -115 -340 -82
-209 -238 -527 -343 -700 -94 -156 -220 -345 -368 -555 -61 -85 -155 -220
-209 -300 -102 -151 -123 -180 -350 -500 -328 -462 -813 -1095 -1175 -1534
-68 -83 -156 -190 -195 -237 -38 -48 -124 -151 -190 -230 -66 -79 -134 -160
-150 -180 -17 -21 -109 -130 -205 -244 -96 -114 -199 -238 -229 -274 -29 -36
-59 -67 -65 -69 -6 -1 -92 95 -191 214 -99 119 -250 299 -335 399 -85 101
-182 216 -215 256 -33 40 -109 132 -168 204 -60 71 -123 148 -140 169 -18 22
-57 69 -88 105 -76 89 -537 680 -571 730 -24 36 -105 145 -228 307 -156 206
-331 451 -573 804 -119 173 -260 378 -315 455 -112 158 -246 361 -316 480 -26
44 -61 103 -78 130 -93 152 -268 548 -348 785 -55 165 -117 430 -140 600 -6
47 -14 95 -17 108 l-5 22 -227 0 c-125 0 -231 -3 -234 -6z"/>
<path d="M11393 8324 c-9 -24 72 -322 134 -489 96 -260 254 -559 468 -885 347
-530 443 -669 750 -1090 89 -122 326 -432 397 -520 15 -19 69 -87 120 -150
268 -335 542 -670 636 -775 15 -16 62 -72 105 -122 43 -51 80 -93 82 -93 2 0
32 35 67 78 34 42 68 83 75 90 62 64 705 848 818 997 46 61 120 156 164 213
118 150 244 318 357 476 54 77 120 169 146 205 26 37 98 143 161 236 478 710
576 877 729 1240 82 194 164 462 170 555 l3 45 -226 3 c-183 2 -228 0 -238
-11 -6 -8 -31 -75 -55 -148 -44 -135 -133 -351 -200 -487 -215 -432 -901
-1429 -1470 -2137 -218 -271 -494 -605 -500 -605 -2 0 -64 73 -137 162 -74 89
-159 191 -190 227 -150 178 -456 568 -589 751 -19 27 -116 160 -216 297 -278
380 -563 811 -746 1128 -105 180 -228 455 -298 667 -59 178 -23 158 -286 158
-195 0 -225 -2 -231 -16z"/>
</g>
</svg>
